<svg width="1280" height="800" viewBox="0 0 1280 800" fill="none" xmlns="http://www.w3.org/2000/svg">
  <rect width="1280" height="800" rx="48" fill="#F5F1EA"/>
  <rect x="96" y="88" width="1088" height="624" rx="36" fill="#111111"/>
  <rect x="152" y="144" width="152" height="18" rx="9" fill="#F7F4EF"/>
  <rect x="152" y="210" width="460" height="42" rx="21" fill="#F7F4EF"/>
  <rect x="152" y="292" width="976" height="72" rx="22" fill="#242424"/>
  <rect x="188" y="319" width="182" height="18" rx="9" fill="#F7F4EF"/>
  <rect x="404" y="319" width="112" height="18" rx="9" fill="#8F8B84"/>
  <rect x="152" y="396" width="976" height="72" rx="22" fill="#242424"/>
  <rect x="188" y="423" width="232" height="18" rx="9" fill="#F7F4EF"/>
  <rect x="454" y="423" width="134" height="18" rx="9" fill="#8F8B84"/>
  <rect x="152" y="500" width="976" height="72" rx="22" fill="#242424"/>
  <rect x="188" y="527" width="204" height="18" rx="9" fill="#F7F4EF"/>
  <rect x="426" y="527" width="160" height="18" rx="9" fill="#8F8B84"/>
</svg>
