<svg width="1280" height="800" viewBox="0 0 1280 800" fill="none" xmlns="http://www.w3.org/2000/svg">
  <rect width="1280" height="800" rx="48" fill="#F7F4EF"/>
  <rect x="96" y="88" width="1088" height="624" rx="40" fill="#FFFFFF"/>
  <rect x="168" y="156" width="190" height="22" rx="11" fill="#111111"/>
  <rect x="168" y="220" width="440" height="18" rx="9" fill="#D8D3CA"/>
  <rect x="168" y="256" width="336" height="18" rx="9" fill="#E7E2D9"/>
  <circle cx="330" cy="474" r="132" fill="#111111"/>
  <circle cx="330" cy="474" r="72" fill="#F7F4EF"/>
  <rect x="574" y="352" width="500" height="56" rx="28" fill="#F2EDE5"/>
  <rect x="574" y="440" width="408" height="56" rx="28" fill="#F2EDE5"/>
  <rect x="574" y="528" width="464" height="56" rx="28" fill="#111111"/>
  <rect x="624" y="370" width="180" height="18" rx="9" fill="#111111"/>
  <rect x="624" y="458" width="148" height="18" rx="9" fill="#111111"/>
  <rect x="624" y="546" width="214" height="18" rx="9" fill="#F7F4EF"/>
</svg>
<svg width="1280" height="800" viewBox="0 0 1280 800" fill="none" xmlns="http://www.w3.org/2000/svg">
  <rect width="1280" height="800" rx="48" fill="#F7F4EF"/>
  <rect x="94" y="84" width="1092" height="632" rx="40" fill="#FFFFFF"/>
  <rect x="170" y="154" width="188" height="22" rx="11" fill="#111111"/>
  <rect x="170" y="220" width="438" height="18" rx="9" fill="#D8D3CA"/>
  <rect x="170" y="256" width="336" height="18" rx="9" fill="#E7E2D9"/>
  <path d="M218 382C282 316 384 316 448 382C512 448 512 540 448 606H218C154 540 154 448 218 382Z" fill="#111111"/>
  <rect x="574" y="352" width="500" height="56" rx="28" fill="#F2EDE5"/>
  <rect x="574" y="440" width="408" height="56" rx="28" fill="#F2EDE5"/>
  <rect x="574" y="528" width="464" height="56" rx="28" fill="#111111"/>
  <rect x="624" y="370" width="180" height="18" rx="9" fill="#111111"/>
  <rect x="624" y="458" width="148" height="18" rx="9" fill="#111111"/>
  <rect x="624" y="546" width="214" height="18" rx="9" fill="#F7F4EF"/>
</svg>
<svg width="1280" height="800" viewBox="0 0 1280 800" fill="none" xmlns="http://www.w3.org/2000/svg">
  <rect width="1280" height="800" rx="48" fill="#F7F4EF"/>
  <rect x="94" y="84" width="1092" height="632" rx="40" fill="#FFFFFF"/>
  <rect x="170" y="154" width="188" height="22" rx="11" fill="#111111"/>
  <rect x="170" y="220" width="438" height="18" rx="9" fill="#D8D3CA"/>
  <rect x="170" y="256" width="336" height="18" rx="9" fill="#E7E2D9"/>
  <path d="M218 382C282 316 384 316 448 382C512 448 512 540 448 606H218C154 540 154 448 218 382Z" fill="#111111"/>
  <rect x="574" y="352" width="500" height="56" rx="28" fill="#F2EDE5"/>
  <rect x="574" y="440" width="408" height="56" rx="28" fill="#F2EDE5"/>
  <rect x="574" y="528" width="464" height="56" rx="28" fill="#111111"/>
  <rect x="624" y="370" width="180" height="18" rx="9" fill="#111111"/>
  <rect x="624" y="458" width="148" height="18" rx="9" fill="#111111"/>
  <rect x="624" y="546" width="214" height="18" rx="9" fill="#F7F4EF"/>
</svg>
